<svg width="20" height="17" viewBox="0 0 20 17" fill="none" xmlns="http://www.w3.org/2000/svg">
<path d="M18.4133 1.66376C17.3781 0.590788 15.9574 0 14.4129 0C13.2586 0 12.2012 0.348576 11.2703 1.0364C10.8008 1.38348 10.375 1.80819 10 2.30381C9.625 1.80819 9.19922 1.38348 8.7293 1.0364C7.79883 0.348576 6.74141 0 5.58711 0C4.04258 0 2.62187 0.590788 1.58672 1.66376C0.563672 2.72405 0 4.17247 0 5.74255C0 7.31264 0.630469 8.83794 1.98359 10.3979C3.19414 11.7934 4.93437 13.2104 6.94922 14.8507C7.63711 15.4109 8.41719 16.0461 9.22695 16.7223C9.44102 16.9015 9.71523 17 10 17C10.2848 17 10.5594 16.9015 10.773 16.7227C11.5828 16.0461 12.3633 15.4109 13.0516 14.8503C15.066 13.2101 16.8063 11.7934 18.0168 10.3979C19.3699 8.83794 20.0004 7.35854 20.0004 5.74255C20.0004 4.12656 19.4367 2.72405 18.4137 1.66376H18.4133Z" fill="#C3C3C3"/>
</svg>
