<svg width="20" height="17" viewBox="0 0 20 17" fill="none" xmlns="http://www.w3.org/2000/svg">
<path d="M18.8458 2.07963C17.3721 0.143244 14.7643 -0.533186 12.535 0.443473C11.5657 0.86178 10.7011 1.56704 10 2.50297C9.29886 1.56475 8.43433 0.859491 7.46499 0.443473C5.2357 -0.533186 2.62792 0.143244 1.15423 2.07963C0.399085 3.0691 0 4.30572 0 5.65537C0 7.59771 1.15835 9.7286 3.44256 11.9913C5.30389 13.8343 7.50343 15.3437 8.64851 16.0792C9.47231 16.6064 10.5277 16.6064 11.3515 16.0792C12.4957 15.3437 14.6961 13.8343 16.5574 11.9913C18.8416 9.72952 20 7.59771 20 5.65537C20 4.30572 19.6009 3.0691 18.8458 2.07963Z" fill="#F9595F"/>
</svg>
