<svg width="100%" height="100%" viewBox="0 0 16 16" fill="none" xmlns="http://www.w3.org/2000/svg">
<mask id="mask0_682_59" style="mask-type:luminance" maskUnits="userSpaceOnUse" x="0" y="0" width="16" height="16">
<path d="M0.5 15.5V0.5H15.5V15.5H0.5Z" fill="white" stroke="white"/>
</mask>
<g mask="url(#mask0_682_59)">
<path d="M7.38528 12.3123H8.61434M11.0799 12.3123H12.309M3.69788 12.3123H4.92693M7.38528 8.62494H8.61434M11.0799 8.62494H12.309M3.69788 8.62494H4.92693M0.625 5.54152H15.3821M11.6945 3.69794V0.625061M4.3124 3.69794V0.625061M3.09038 15.3749H12.9165C14.2782 15.3749 15.3819 14.271 15.3819 12.9095V4.3195C15.3819 2.95778 14.278 1.85412 12.9165 1.85412H3.09038C1.72867 1.85412 0.625 2.95802 0.625 4.3195V12.9093C0.625 14.271 1.7289 15.3747 3.09038 15.3747V15.3749Z" stroke="#898989" stroke-linecap="round" stroke-linejoin="round"/>
</g>
</svg>
