<svg
  width="149"
  height="19"
  viewBox="0 0 149 19"
  fill="none"
  xmlns="http://www.w3.org/2000/svg"
>
  <path
    d="M10.056 18.384C8.712 18.384 7.464 18.176 6.312 17.76C5.176 17.328 4.184 16.72 3.336 15.936C2.504 15.152 1.856 14.224 1.392 13.152C0.928 12.08 0.696 10.896 0.696 9.6C0.696 8.304 0.928 7.12 1.392 6.048C1.856 4.976 2.504 4.048 3.336 3.264C4.184 2.48 5.176 1.88 6.312 1.464C7.464 1.032 8.712 0.816 10.056 0.816C11.704 0.816 13.16 1.104 14.424 1.68C15.704 2.256 16.76 3.088 17.592 4.176L14.016 7.368C13.52 6.744 12.968 6.264 12.36 5.928C11.768 5.576 11.096 5.4 10.344 5.4C9.752 5.4 9.216 5.496 8.736 5.688C8.256 5.88 7.84 6.16 7.488 6.528C7.152 6.896 6.888 7.344 6.696 7.872C6.504 8.384 6.408 8.96 6.408 9.6C6.408 10.24 6.504 10.824 6.696 11.352C6.888 11.864 7.152 12.304 7.488 12.672C7.84 13.04 8.256 13.32 8.736 13.512C9.216 13.704 9.752 13.8 10.344 13.8C11.096 13.8 11.768 13.632 12.36 13.296C12.968 12.944 13.52 12.456 14.016 11.832L17.592 15.024C16.76 16.096 15.704 16.928 14.424 17.52C13.16 18.096 11.704 18.384 10.056 18.384ZM19.2274 18V1.2H27.3154C28.8834 1.2 30.2354 1.456 31.3714 1.968C32.5234 2.48 33.4114 3.216 34.0354 4.176C34.6594 5.12 34.9714 6.24 34.9714 7.536C34.9714 8.832 34.6594 9.952 34.0354 10.896C33.4114 11.824 32.5234 12.536 31.3714 13.032C30.2354 13.528 28.8834 13.776 27.3154 13.776H22.3714L24.8914 11.448V18H19.2274ZM29.2834 18L25.1554 11.88H31.1554L35.3314 18H29.2834ZM24.8914 12.072L22.3714 9.504H26.9554C27.7394 9.504 28.3154 9.328 28.6834 8.976C29.0674 8.624 29.2594 8.144 29.2594 7.536C29.2594 6.928 29.0674 6.448 28.6834 6.096C28.3154 5.744 27.7394 5.568 26.9554 5.568H22.3714L24.8914 3V12.072ZM42.2942 7.44H49.7822V11.52H42.2942V7.44ZM42.6782 13.728H51.0782V18H37.1102V1.2H50.7662V5.472H42.6782V13.728ZM57.2723 18L51.8963 1.2H57.7283L62.0723 15.384H59.1443L63.7523 1.2H68.9603L73.2563 15.384H70.4483L74.9843 1.2H80.3603L74.9843 18H68.9123L65.4083 6.384H67.0403L63.3443 18H57.2723ZM81.618 18V1.2H89.706C91.274 1.2 92.626 1.456 93.762 1.968C94.914 2.48 95.802 3.216 96.426 4.176C97.05 5.12 97.362 6.24 97.362 7.536C97.362 8.832 97.05 9.952 96.426 10.896C95.802 11.84 94.914 12.576 93.762 13.104C92.626 13.616 91.274 13.872 89.706 13.872H84.762L87.282 11.448V18H81.618ZM87.282 12.072L84.762 9.504H89.346C90.13 9.504 90.706 9.328 91.074 8.976C91.458 8.624 91.65 8.144 91.65 7.536C91.65 6.928 91.458 6.448 91.074 6.096C90.706 5.744 90.13 5.568 89.346 5.568H84.762L87.282 3V12.072ZM99.2196 18V1.2H104.884V13.608H112.468V18H99.2196ZM112.442 18L119.786 1.2H125.354L132.698 18H126.842L121.418 3.888H123.626L118.202 18H112.442ZM116.81 15.072L118.25 10.992H125.978L127.418 15.072H116.81ZM136.844 18V10.632L138.14 14.016L130.508 1.2H136.484L141.644 9.96H138.164L143.372 1.2H148.844L141.26 14.016L142.508 10.632V18H136.844Z"
    fill="#1E1E1E"
  />
</svg>