<svg width="100%" height="100%" viewBox="0 0 16 14" fill="none" xmlns="http://www.w3.org/2000/svg">
<g clip-path="url(#clip0_682_52)">
<path d="M5.56192 6.096C7.24525 6.096 8.60992 4.73133 8.60992 3.048C8.60992 1.36467 7.24525 0 5.56192 0C3.87858 0 2.51392 1.36467 2.51392 3.048V3.04867C2.51558 4.73133 3.87925 6.09467 5.56192 6.096Z" fill="#898989"/>
<path d="M9.54933 8.61401C7.404 6.41334 3.88067 6.36868 1.68 8.51401C0.606333 9.56068 0.000666667 10.9967 0 12.496C0 12.7907 0.238667 13.0293 0.533333 13.0293H10.592C10.8867 13.0293 11.1253 12.7907 11.1253 12.496C11.1273 11.9303 11.04 11.368 10.8667 10.83C10.6083 9.99767 10.157 9.23834 9.54933 8.61401Z" fill="#898989"/>
<path d="M12.0001 6.36268C13.2519 6.36268 14.2667 5.34786 14.2667 4.09601C14.2667 2.84417 13.2519 1.82935 12.0001 1.82935C10.7482 1.82935 9.7334 2.84417 9.7334 4.09601C9.7334 5.34786 10.7482 6.36268 12.0001 6.36268Z" fill="#898989"/>
<path d="M12.0002 6.98666C11.2852 6.98933 10.5842 7.184 9.97021 7.55033C10.0859 7.65366 10.2029 7.75566 10.3122 7.86766C11.0385 8.614 11.5779 9.52166 11.8865 10.5163C11.9922 10.8437 12.0702 11.1797 12.1195 11.52H15.4669C15.7615 11.52 16.0002 11.2813 16.0002 10.9867C15.9979 8.77866 14.2082 6.989 12.0002 6.98666Z" fill="#898989"/>
</g>
<defs>
<clipPath id="clip0_682_52">
<rect width="16" height="13.0293" fill="white"/>
</clipPath>
</defs>
</svg>
