<svg width="17" height="20" viewBox="0 0 17 20" fill="none" xmlns="http://www.w3.org/2000/svg">
<mask id="mask0_1059_110" style="mask-type:luminance" maskUnits="userSpaceOnUse" x="0" y="12" width="17" height="8">
<path fill-rule="evenodd" clip-rule="evenodd" d="M0.580078 12.5609H16.42V19.9349H0.580078V12.5609Z" fill="white"/>
</mask>
<g mask="url(#mask0_1059_110)">
<path fill-rule="evenodd" clip-rule="evenodd" d="M8.50108 14.0609C4.24008 14.0609 2.08008 14.7929 2.08008 16.2379C2.08008 17.6959 4.24008 18.4349 8.50108 18.4349C12.7611 18.4349 14.9201 17.7029 14.9201 16.2579C14.9201 14.7999 12.7611 14.0609 8.50108 14.0609ZM8.50108 19.9349C6.54208 19.9349 0.580078 19.9349 0.580078 16.2379C0.580078 12.9419 5.10108 12.5609 8.50108 12.5609C10.4601 12.5609 16.4201 12.5609 16.4201 16.2579C16.4201 19.5539 11.9001 19.9349 8.50108 19.9349Z" fill="#727272"/>
</g>
<mask id="mask1_1059_110" style="mask-type:luminance" maskUnits="userSpaceOnUse" x="3" y="0" width="11" height="11">
<path fill-rule="evenodd" clip-rule="evenodd" d="M3.18994 0.0649414H13.81V10.6835H3.18994V0.0649414Z" fill="white"/>
</mask>
<g mask="url(#mask1_1059_110)">
<path fill-rule="evenodd" clip-rule="evenodd" d="M8.50097 1.49258C6.35997 1.49258 4.61797 3.23358 4.61797 5.37458C4.61097 7.50858 6.33997 9.24858 8.47197 9.25657L8.50097 9.97058V9.25657C10.641 9.25657 12.382 7.51458 12.382 5.37458C12.382 3.23358 10.641 1.49258 8.50097 1.49258ZM8.50097 10.6836H8.46897C5.54697 10.6746 3.17997 8.29158 3.18997 5.37158C3.18997 2.44658 5.57197 0.0645752 8.50097 0.0645752C11.429 0.0645752 13.81 2.44658 13.81 5.37458C13.81 8.30258 11.429 10.6836 8.50097 10.6836Z" fill="#727272"/>
</g>
</svg>
