<svg width="20" height="20" viewBox="0 0 20 20" fill="none" xmlns="http://www.w3.org/2000/svg">
<path d="M6.99999 14.6667L9.99999 11.6667L13 14.6667L14.1667 13.5L11.1667 10.5L14.1667 7.50002L13 6.33335L9.99999 9.33335L6.99999 6.33335L5.83332 7.50002L8.83332 10.5L5.83332 13.5L6.99999 14.6667ZM9.99999 18.8334C8.84721 18.8334 7.76388 18.6146 6.74999 18.1771C5.7361 17.7396 4.85416 17.1459 4.10416 16.3959C3.35416 15.6459 2.76041 14.7639 2.32291 13.75C1.88541 12.7361 1.66666 11.6528 1.66666 10.5C1.66666 9.34724 1.88541 8.26391 2.32291 7.25002C2.76041 6.23613 3.35416 5.35419 4.10416 4.60419C4.85416 3.85419 5.7361 3.26044 6.74999 2.82294C7.76388 2.38544 8.84721 2.16669 9.99999 2.16669C11.1528 2.16669 12.2361 2.38544 13.25 2.82294C14.2639 3.26044 15.1458 3.85419 15.8958 4.60419C16.6458 5.35419 17.2396 6.23613 17.6771 7.25002C18.1146 8.26391 18.3333 9.34724 18.3333 10.5C18.3333 11.6528 18.1146 12.7361 17.6771 13.75C17.2396 14.7639 16.6458 15.6459 15.8958 16.3959C15.1458 17.1459 14.2639 17.7396 13.25 18.1771C12.2361 18.6146 11.1528 18.8334 9.99999 18.8334ZM9.99999 17.1667C11.8611 17.1667 13.4375 16.5209 14.7292 15.2292C16.0208 13.9375 16.6667 12.3611 16.6667 10.5C16.6667 8.63891 16.0208 7.06252 14.7292 5.77085C13.4375 4.47919 11.8611 3.83335 9.99999 3.83335C8.13888 3.83335 6.56249 4.47919 5.27082 5.77085C3.97916 7.06252 3.33332 8.63891 3.33332 10.5C3.33332 12.3611 3.97916 13.9375 5.27082 15.2292C6.56249 16.5209 8.13888 17.1667 9.99999 17.1667Z" fill="#49454F"/>
</svg>
