<svg width="current" height="current" viewBox="0 0 56 56" fill="none" xmlns="http://www.w3.org/2000/svg">
<path d="M28 56C43.464 56 56 43.464 56 28C56 12.536 43.464 0 28 0C12.536 0 0 12.536 0 28C0 43.464 12.536 56 28 56Z" fill="url(#paint0_radial_682_310)"/>
<path d="M28 56C43.464 56 56 43.464 56 28C56 12.536 43.464 0 28 0C12.536 0 0 12.536 0 28C0 43.464 12.536 56 28 56Z" fill="url(#paint1_radial_682_310)"/>
<path d="M28 56C43.464 56 56 43.464 56 28C56 12.536 43.464 0 28 0C12.536 0 0 12.536 0 28C0 43.464 12.536 56 28 56Z" fill="url(#paint2_radial_682_310)"/>
<path fill-rule="evenodd" clip-rule="evenodd" d="M26.3376 4.84692C26.3376 4.84692 26.4979 4.74678 26.578 4.76681L29.2217 5.1073C29.7024 5.16738 30.1431 4.8269 30.2031 4.34621C30.2632 3.86552 29.9227 3.42489 29.4421 3.36481L26.4378 2.98426C26.0372 2.94421 25.6366 3.06438 25.3562 3.34478L23.3934 5.2475C23.0329 5.58798 23.0329 6.14878 23.3734 6.5093C23.7139 6.86981 24.2747 6.86981 24.6352 6.52933L26.3577 4.88698L26.3376 4.84692Z" fill="#D2C2C6"/>
<path fill-rule="evenodd" clip-rule="evenodd" d="M30.2833 13.6795C30.2833 13.6795 30.4034 13.5594 30.5036 13.5393L33.1474 13.1788C33.628 13.1187 33.9685 12.6581 33.9084 12.1774C33.8484 11.6967 33.3877 11.3562 32.907 11.4163L29.9227 11.8369C29.5222 11.897 29.1817 12.1173 28.9614 12.4578L27.5393 14.8011C27.279 15.2217 27.4192 15.7625 27.8398 16.0229C28.2604 16.2833 28.8011 16.1431 29.0615 15.7225L30.2833 13.6795Z" fill="#D2C2C6"/>
<path fill-rule="evenodd" clip-rule="evenodd" d="M36.2518 21.2303C36.2518 21.2303 36.3319 21.0701 36.412 21.03L38.8355 19.9084C39.2761 19.7082 39.4764 19.1674 39.2561 18.7268C39.0558 18.2861 38.515 18.0858 38.0744 18.3062L35.3305 19.588C34.97 19.7482 34.6896 20.0887 34.6094 20.4692L33.9485 23.113C33.8283 23.5937 34.1288 24.0744 34.5894 24.1946C35.0701 24.3147 35.5508 24.0143 35.671 23.5536L36.2518 21.2504V21.2303Z" fill="#D2C2C6"/>
<path fill-rule="evenodd" clip-rule="evenodd" d="M44.123 26.8784C44.123 26.8784 44.1631 26.6981 44.2432 26.6581L46.3863 25.0758C46.7868 24.7754 46.867 24.2346 46.5665 23.834C46.2661 23.4335 45.7253 23.3534 45.3247 23.6538L42.9013 25.4363C42.5808 25.6767 42.3805 26.0372 42.3605 26.4378L42.2403 29.1617C42.2203 29.6423 42.6009 30.0629 43.0815 30.083C43.5622 30.103 43.9828 29.7225 44.0029 29.2418L44.103 26.8584L44.123 26.8784Z" fill="#D2C2C6"/>
<path fill-rule="evenodd" clip-rule="evenodd" d="M53.176 30.2432C53.176 30.2432 53.176 30.0629 53.216 29.9828L54.7382 27.7997C55.0186 27.3991 54.9185 26.8383 54.5179 26.5579C54.1173 26.2775 53.5565 26.3777 53.2761 26.7783L51.5536 29.2618C51.3333 29.5823 51.2532 30.0029 51.3734 30.3834L52.1345 33.0072C52.2747 33.4878 52.7554 33.7482 53.2361 33.608C53.7167 33.4678 53.9771 32.9871 53.8369 32.5064L53.176 30.2232V30.2432Z" fill="#D2C2C6"/>
<path d="M26.0973 0.0600858C28.3405 15.5021 40.5179 27.7196 55.9199 30.0229C55.8798 30.4635 55.8398 30.8841 55.7997 31.3248C39.7568 28.9614 27.0987 16.2432 24.7954 0.180258C25.216 0.1402 25.6567 0.100143 26.0973 0.0600858Z" fill="#543D45"/>
<path d="M0.220315 24.5351C16.3834 26.8183 29.1817 39.5966 31.465 55.7797C31.0443 55.8398 30.6037 55.8798 30.1631 55.8999C27.9399 40.3577 15.6423 28.0601 0.0801144 25.8369C0.120172 25.3963 0.160229 24.9757 0.200286 24.5351H0.220315Z" fill="#543D45"/>
<path fill-rule="evenodd" clip-rule="evenodd" d="M26.1173 4.40629C26.1173 4.40629 26.2775 4.30615 26.3577 4.32618L29.3619 4.70672C29.9027 4.76681 30.4034 4.38627 30.4835 3.84549C30.5436 3.30472 30.1631 2.80401 29.6223 2.72389L26.2375 2.30329C25.7969 2.2432 25.3362 2.40343 25.0157 2.70386L22.7926 4.84692C22.392 5.22747 22.372 5.86838 22.7725 6.26896C23.1531 6.66953 23.794 6.68956 24.1946 6.28898L26.1373 4.42632L26.1173 4.40629Z" fill="url(#paint3_linear_682_310)"/>
<path d="M23.2933 5.36767C23.2933 5.36767 23.1931 5.62804 23.2933 5.72818C23.3934 5.82833 23.5536 5.82833 23.6538 5.72818L23.3133 5.36767H23.2933ZM29.4621 3.94564C29.6023 3.94564 29.7225 3.86552 29.7425 3.72532C29.7425 3.58512 29.6624 3.46495 29.5222 3.44492L29.4621 3.94564ZM23.6538 5.72818L25.877 3.58512L25.5365 3.22461L23.3133 5.36767L23.6538 5.72818ZM26.0773 3.52504L29.4621 3.94564L29.5222 3.44492L26.1373 3.02432L26.0773 3.52504ZM25.877 3.58512C25.877 3.58512 25.9971 3.50501 26.0773 3.52504L26.1373 3.02432C25.917 3.00429 25.6967 3.06438 25.5165 3.22461L25.8569 3.58512H25.877Z" fill="url(#paint4_linear_682_310)"/>
<path fill-rule="evenodd" clip-rule="evenodd" d="M29.9027 13.0787C29.9027 13.0787 30.0629 12.9185 30.1631 12.9185H33.0272C33.588 12.9185 34.0286 12.4778 34.0286 11.917C34.0286 11.3562 33.588 10.9156 33.0272 10.9156H29.6824C29.1216 10.9156 28.6209 11.216 28.3605 11.7167L26.7983 14.6409C26.5379 15.1216 26.7182 15.7425 27.2189 16.0029C27.6996 16.2632 28.3205 16.083 28.5808 15.5823L29.9227 13.0787H29.9027Z" fill="url(#paint5_linear_682_310)"/>
<path d="M27.4592 15.0014C27.3991 15.1216 27.4592 15.2818 27.5594 15.3419C27.6795 15.402 27.8398 15.3419 27.8999 15.2418L27.4592 15.0014ZM33.0272 12.1774C33.1674 12.1774 33.2675 12.0572 33.2675 11.9371C33.2675 11.8169 33.1474 11.6967 33.0272 11.6967V12.1974V12.1774ZM27.8999 15.2418L29.4621 12.3176L29.0215 12.0773L27.4592 15.0014L27.8999 15.2418ZM29.6824 12.1774H33.0272V11.6767H29.6824V12.1774ZM29.4621 12.2976C29.4621 12.2976 29.5823 12.1574 29.6824 12.1574V11.6567C29.402 11.6567 29.1416 11.8169 29.0215 12.0572L29.4621 12.2976Z" fill="url(#paint6_linear_682_310)"/>
<path fill-rule="evenodd" clip-rule="evenodd" d="M35.711 20.7296C35.711 20.6295 35.8112 20.5293 35.9113 20.4893L38.6352 19.588C39.1559 19.4077 39.4363 18.8469 39.2761 18.3262C39.0959 17.8054 38.535 17.525 38.0143 17.6853L34.8298 18.7468C34.309 18.927 33.9084 19.3677 33.8283 19.9285L33.2675 23.1931C33.1674 23.7339 33.5479 24.2547 34.0887 24.3548C34.6295 24.4549 35.1502 24.0744 35.2504 23.5336L35.731 20.7296H35.711Z" fill="url(#paint7_linear_682_310)"/>
<path d="M34.0086 23.3133C33.9886 23.4535 34.0687 23.5737 34.2089 23.5937C34.3491 23.6137 34.4692 23.5336 34.4893 23.3934L33.9886 23.3133H34.0086ZM38.3949 18.867C38.535 18.8269 38.5951 18.6867 38.5551 18.5465C38.515 18.4063 38.3748 18.3462 38.2346 18.3863L38.3949 18.867ZM34.4893 23.3934L35.0501 20.1288L34.5494 20.0486L33.9886 23.3133L34.4893 23.3934ZM35.2303 19.9285L38.4149 18.867L38.2547 18.3863L35.0701 19.4478L35.2303 19.9285ZM35.0501 20.1288C35.0501 20.1288 35.1302 19.9685 35.2103 19.9285L35.0501 19.4478C34.7897 19.5279 34.5894 19.7682 34.5494 20.0286L35.0501 20.1087V20.1288Z" fill="url(#paint8_linear_682_310)"/>
<path fill-rule="evenodd" clip-rule="evenodd" d="M43.4421 26.4979C43.4421 26.3977 43.5021 26.2976 43.5823 26.2375L46.0658 24.6753C46.5265 24.3748 46.6667 23.7539 46.3863 23.2933C46.0858 22.8326 45.465 22.6924 45.0043 22.9728L42.1602 24.7754C41.7196 25.0558 41.4592 25.5365 41.4592 26.0372V29.4621C41.4592 30.0229 41.8999 30.4635 42.4607 30.4635C43.0215 30.4635 43.4621 30.0229 43.4621 29.4621V26.4778L43.4421 26.4979Z" fill="url(#paint9_linear_682_310)"/>
<path d="M42.1803 29.4821C42.1803 29.6223 42.3004 29.7225 42.4206 29.7225C42.5408 29.7225 42.6609 29.6023 42.6609 29.4821H42.1602H42.1803ZM45.6452 24.0544C45.7654 23.9742 45.8054 23.834 45.7253 23.7139C45.6452 23.5937 45.505 23.5536 45.3848 23.6338L45.6452 24.0544ZM42.681 29.4821V26.0572H42.1803V29.4821H42.681ZM42.8011 25.8569L45.6452 24.0544L45.3848 23.6338L42.5408 25.4363L42.8011 25.8569ZM42.681 26.0572C42.681 26.0572 42.721 25.897 42.8011 25.8369L42.5408 25.4163C42.3205 25.5565 42.2003 25.7969 42.2003 26.0572H42.701H42.681Z" fill="url(#paint10_linear_682_310)"/>
<path fill-rule="evenodd" clip-rule="evenodd" d="M52.3949 30.1431C52.3949 30.1431 52.3949 29.9428 52.4549 29.8627L54.4177 27.6795C54.7783 27.2589 54.7582 26.6381 54.3376 26.2575C53.917 25.897 53.2961 25.917 52.9156 26.3376L50.6724 28.8412C50.3319 29.2217 50.2117 29.7625 50.3519 30.2432L51.2733 33.5279C51.4335 34.0687 51.9743 34.3691 52.515 34.2289C53.0558 34.0687 53.3562 33.5279 53.216 32.9871L52.4149 30.123L52.3949 30.1431Z" fill="url(#paint11_linear_682_310)"/>
<path d="M51.9943 33.3476C52.0343 33.4878 52.1745 33.568 52.2947 33.5279C52.4349 33.4878 52.515 33.3476 52.475 33.2275L51.9943 33.3677V33.3476ZM53.8569 27.1788C53.9571 27.0787 53.9371 26.9185 53.8569 26.8183C53.7568 26.7182 53.5966 26.7382 53.4964 26.8183L53.877 27.1588L53.8569 27.1788ZM52.475 33.2074L51.5536 29.9227L51.073 30.0629L51.9943 33.3476L52.475 33.2074ZM51.5937 29.6824L53.8369 27.1788L53.4564 26.8383L51.2132 29.3419L51.5937 29.6824ZM51.5536 29.9227C51.5536 29.9227 51.5536 29.7425 51.6137 29.6824L51.2332 29.3419C51.0529 29.5422 50.9928 29.8026 51.073 30.0429L51.5536 29.9027V29.9227Z" fill="url(#paint12_linear_682_310)"/>
<path fill-rule="evenodd" clip-rule="evenodd" d="M30.123 52.2146C30.123 52.2146 30.3033 52.1145 30.4034 52.1545L33.2275 52.9557C33.7682 53.1159 34.309 52.7954 34.4692 52.2747C34.6295 51.7339 34.309 51.1931 33.7883 51.0329L30.5436 50.1116C30.0429 49.9714 29.5222 50.1116 29.1216 50.432L26.578 52.7153C26.1574 53.0758 26.1373 53.7167 26.4979 54.1373C26.8584 54.5579 27.4993 54.578 27.9199 54.2175L30.1431 52.2346L30.123 52.2146Z" fill="url(#paint13_linear_682_310)"/>
<path d="M27.0587 53.2561C26.9585 53.3562 26.9385 53.4964 27.0386 53.6166C27.1388 53.7167 27.279 53.7368 27.3991 53.6366L27.0587 53.2561ZM33.4278 52.2346C33.568 52.2747 33.7082 52.1946 33.7282 52.0544C33.7682 51.9142 33.6881 51.774 33.5479 51.7539L33.4077 52.2346H33.4278ZM27.3991 53.6366L29.9628 51.3534L29.6223 50.9728L27.0787 53.2561L27.4192 53.6366H27.3991ZM30.1831 51.2933L33.4278 52.2146L33.568 51.7339L30.3233 50.8126L30.1831 51.2933ZM29.9628 51.3534C29.9628 51.3534 30.123 51.2733 30.2031 51.2933L30.3433 50.8126C30.103 50.7325 29.8226 50.8126 29.6423 50.9728L29.9828 51.3534H29.9628Z" fill="url(#paint14_linear_682_310)"/>
<path fill-rule="evenodd" clip-rule="evenodd" d="M26.5579 43.2618C26.5579 43.2618 26.7182 43.1216 26.8183 43.1216L29.7425 43.1817C30.3033 43.1817 30.7439 42.7611 30.7639 42.2003C30.7639 41.6395 30.3433 41.1989 29.7825 41.1788L26.4177 41.1187C25.897 41.1187 25.4163 41.3591 25.1359 41.7997L23.2532 44.6638C22.9528 45.1245 23.073 45.7453 23.5336 46.0458C23.9943 46.3462 24.6152 46.226 24.9156 45.7654L26.5579 43.2818V43.2618Z" fill="url(#paint15_linear_682_310)"/>
<path d="M23.8741 45.0443C23.794 45.1645 23.834 45.3247 23.9542 45.3848C24.0744 45.465 24.2346 45.4249 24.2947 45.3047L23.8741 45.0243V45.0443ZM29.7625 42.4206C29.9027 42.4206 30.0229 42.3205 30.0229 42.1803C30.0229 42.0401 29.9227 41.9199 29.7825 41.9199V42.4206H29.7625ZM24.2747 45.3247L26.1574 42.4607L25.7368 42.1803L23.8541 45.0443L24.2747 45.3247ZM26.3777 42.3605L29.7425 42.4206V41.9199L26.3777 41.8598V42.3605ZM26.1774 42.4807C26.1774 42.4807 26.2976 42.3605 26.3977 42.3605V41.8598C26.1574 41.8598 25.917 41.98 25.7568 42.2003L26.1774 42.4807Z" fill="url(#paint16_linear_682_310)"/>
<path fill-rule="evenodd" clip-rule="evenodd" d="M20.7096 35.7511C20.7296 35.6509 20.8298 35.5708 20.9299 35.5308L23.7539 34.8298C24.2947 34.6896 24.6152 34.1488 24.475 33.608C24.3348 33.0672 23.794 32.7468 23.2532 32.887L19.9886 33.7082C19.4678 33.8484 19.0472 34.2489 18.907 34.7697L18.0057 38.0544C17.8655 38.5951 18.166 39.1359 18.7067 39.2961C19.2475 39.4363 19.7883 39.1359 19.9485 38.5951L20.7296 35.7511H20.7096Z" fill="url(#paint17_linear_682_310)"/>
<path d="M18.7067 38.2346C18.6667 38.3748 18.7468 38.515 18.887 38.535C19.0272 38.5551 19.1674 38.495 19.1874 38.3548L18.7067 38.2146V38.2346ZM23.5536 34.0887C23.6938 34.0486 23.774 33.9285 23.7339 33.7883C23.6938 33.6481 23.5737 33.568 23.4335 33.608L23.5536 34.0887ZM19.2074 38.3748L20.1087 35.0901L19.628 34.9499L18.7268 38.2346L19.2074 38.3748ZM20.289 34.9099L23.5536 34.0887L23.4335 33.608L20.1688 34.4292L20.289 34.9099ZM20.1087 35.0901C20.1087 35.0901 20.2089 34.9299 20.289 34.9099L20.1688 34.4292C19.9084 34.4893 19.7082 34.6896 19.628 34.9499L20.1087 35.0901Z" fill="url(#paint18_linear_682_310)"/>
<path fill-rule="evenodd" clip-rule="evenodd" d="M13.1788 29.9828C13.1788 29.8827 13.2389 29.7825 13.3391 29.7225L15.8827 28.3205C16.3634 28.0601 16.5436 27.4392 16.2632 26.9585C16.0029 26.4778 15.382 26.2976 14.9013 26.578L11.9571 28.2203C11.4764 28.4807 11.196 28.9814 11.176 29.5222L11.1359 32.927C11.1359 33.4878 11.5765 33.9285 12.1373 33.9285C12.6981 33.9285 13.1388 33.4878 13.1388 32.927V29.9828H13.1788Z" fill="url(#paint19_linear_682_310)"/>
<path d="M11.917 32.927C11.917 33.0672 12.0172 33.1874 12.1574 33.1874C12.2976 33.1874 12.4177 33.0873 12.4177 32.9471H11.917V32.927ZM15.5222 27.6595C15.6423 27.5994 15.6824 27.4392 15.6223 27.319C15.5622 27.1989 15.402 27.1588 15.2818 27.2189L15.5222 27.6595ZM12.4177 32.927L12.4578 29.5222H11.9571L11.917 32.927H12.4177ZM12.578 29.3019L15.5222 27.6595L15.2818 27.2189L12.3376 28.8612L12.578 29.3019ZM12.4378 29.5222C12.4378 29.5222 12.4979 29.3419 12.5579 29.3019L12.3176 28.8612C12.0773 29.0014 11.9371 29.2418 11.9371 29.5021H12.4378V29.5222Z" fill="url(#paint20_linear_682_310)"/>
<path fill-rule="evenodd" clip-rule="evenodd" d="M4.40629 26.3176C4.40629 26.3176 4.40629 26.1173 4.48641 26.0572L6.54936 23.9342C6.9299 23.5336 6.9299 22.9127 6.52933 22.5122C6.12876 22.1316 5.50787 22.1316 5.1073 22.5322L2.76395 24.9557C2.42346 25.3162 2.28326 25.8169 2.36338 26.2976L3.00429 29.6023C3.10443 30.1431 3.64521 30.5036 4.18598 30.3834C4.72675 30.2833 5.08727 29.7425 4.9671 29.2017L4.40629 26.3176Z" fill="url(#paint21_linear_682_310)"/>
<path d="M3.74535 29.4621C3.76538 29.6023 3.90558 29.6824 4.04578 29.6624C4.18598 29.6423 4.26609 29.5021 4.24607 29.3619L3.74535 29.4621ZM6.00858 23.4134C6.00858 23.4134 6.10873 23.1531 6.00858 23.0529C5.90844 22.9528 5.74821 22.9528 5.64807 23.0529L6.00858 23.3934V23.4134ZM4.24607 29.3619L3.60515 26.0572L3.10443 26.1574L3.74535 29.4621L4.24607 29.3619ZM3.66524 25.8369L6.00858 23.4134L5.64807 23.073L3.30472 25.4964L3.66524 25.8369ZM3.58512 26.0572C3.58512 26.0572 3.58512 25.897 3.64521 25.8369L3.28469 25.4964C3.10443 25.6767 3.04435 25.917 3.08441 26.1574L3.58512 26.0572Z" fill="url(#paint22_linear_682_310)"/>
<defs>
<radialGradient id="paint0_radial_682_310" cx="0" cy="0" r="1" gradientUnits="userSpaceOnUse" gradientTransform="translate(48.4887 10.3012) rotate(128.66) scale(54.5179)">
<stop offset="0.32" stop-color="#F6F4F7"/>
<stop offset="1" stop-color="#CFB9BF"/>
</radialGradient>
<radialGradient id="paint1_radial_682_310" cx="0" cy="0" r="1" gradientUnits="userSpaceOnUse" gradientTransform="translate(-4.00263 15.7078) rotate(13.81) scale(23.1931 57.9227)">
<stop stop-color="#C6ACA6"/>
<stop offset="1" stop-color="#C6ACA6" stop-opacity="0"/>
</radialGradient>
<radialGradient id="paint2_radial_682_310" cx="0" cy="0" r="1" gradientUnits="userSpaceOnUse" gradientTransform="translate(21.0291 -9.56301) rotate(74.44) scale(17.4649)">
<stop stop-color="#C6BAB8"/>
<stop offset="1" stop-color="#C6BAB8" stop-opacity="0"/>
</radialGradient>
<linearGradient id="paint3_linear_682_310" x1="25.8429" y1="9.57792" x2="36.1907" y2="38.9747" gradientUnits="userSpaceOnUse">
<stop stop-color="#E93040"/>
<stop offset="1" stop-color="#F6278F"/>
</linearGradient>
<linearGradient id="paint4_linear_682_310" x1="53.7546" y1="17.4066" x2="-3.31409" y2="20.1737" gradientUnits="userSpaceOnUse">
<stop stop-color="#FF539B"/>
<stop offset="1" stop-color="#FF539B" stop-opacity="0"/>
</linearGradient>
<linearGradient id="paint5_linear_682_310" x1="21.5081" y1="9.04872" x2="36.3879" y2="31.0388" gradientUnits="userSpaceOnUse">
<stop stop-color="#E93040"/>
<stop offset="1" stop-color="#F6278F"/>
</linearGradient>
<linearGradient id="paint6_linear_682_310" x1="53.8846" y1="3.93095" x2="-10.0288" y2="18.7958" gradientUnits="userSpaceOnUse">
<stop stop-color="#FF539B"/>
<stop offset="1" stop-color="#FF539B" stop-opacity="0"/>
</linearGradient>
<linearGradient id="paint7_linear_682_310" x1="15.4855" y1="16.2054" x2="30.8507" y2="33.7935" gradientUnits="userSpaceOnUse">
<stop stop-color="#E93040"/>
<stop offset="1" stop-color="#F6278F"/>
</linearGradient>
<linearGradient id="paint8_linear_682_310" x1="53.1564" y1="2.7077" x2="-3.23595" y2="53.7661" gradientUnits="userSpaceOnUse">
<stop stop-color="#FF539B"/>
<stop offset="1" stop-color="#FF539B" stop-opacity="0"/>
</linearGradient>
<linearGradient id="paint9_linear_682_310" x1="9.95272" y1="20.5957" x2="27.5515" y2="37.6112" gradientUnits="userSpaceOnUse">
<stop stop-color="#E93040"/>
<stop offset="1" stop-color="#F6278F"/>
</linearGradient>
<linearGradient id="paint10_linear_682_310" x1="50.6883" y1="1.47849" x2="21.5754" y2="66.815" gradientUnits="userSpaceOnUse">
<stop stop-color="#FF539B"/>
<stop offset="1" stop-color="#FF539B" stop-opacity="0"/>
</linearGradient>
<linearGradient id="paint11_linear_682_310" x1="10.4715" y1="24.3996" x2="37.0234" y2="39.2299" gradientUnits="userSpaceOnUse">
<stop stop-color="#E93040"/>
<stop offset="1" stop-color="#F6278F"/>
</linearGradient>
<linearGradient id="paint12_linear_682_310" x1="48.8563" y1="1.55084" x2="39.0863" y2="60.4669" gradientUnits="userSpaceOnUse">
<stop stop-color="#FF539B"/>
<stop offset="1" stop-color="#FF539B" stop-opacity="0"/>
</linearGradient>
<linearGradient id="paint13_linear_682_310" x1="25.8709" y1="9.83555" x2="35.2478" y2="40.3534" gradientUnits="userSpaceOnUse">
<stop stop-color="#E93040"/>
<stop offset="1" stop-color="#F6278F"/>
</linearGradient>
<linearGradient id="paint14_linear_682_310" x1="54.0911" y1="20.5673" x2="-2.58387" y2="22.5826" gradientUnits="userSpaceOnUse">
<stop stop-color="#FF539B"/>
<stop offset="1" stop-color="#FF539B" stop-opacity="0"/>
</linearGradient>
<linearGradient id="paint15_linear_682_310" x1="22.2446" y1="9.03127" x2="36.7816" y2="30.6839" gradientUnits="userSpaceOnUse">
<stop stop-color="#E93040"/>
<stop offset="1" stop-color="#F6278F"/>
</linearGradient>
<linearGradient id="paint16_linear_682_310" x1="53.4634" y1="2.83017" x2="-9.56715" y2="15.6874" gradientUnits="userSpaceOnUse">
<stop stop-color="#FF539B"/>
<stop offset="1" stop-color="#FF539B" stop-opacity="0"/>
</linearGradient>
<linearGradient id="paint17_linear_682_310" x1="16.4236" y1="15.1783" x2="31.5036" y2="31.6654" gradientUnits="userSpaceOnUse">
<stop stop-color="#E93040"/>
<stop offset="1" stop-color="#F6278F"/>
</linearGradient>
<linearGradient id="paint18_linear_682_310" x1="51.6639" y1="-0.110128" x2="-9.27263" y2="45.6203" gradientUnits="userSpaceOnUse">
<stop stop-color="#FF539B"/>
<stop offset="1" stop-color="#FF539B" stop-opacity="0"/>
</linearGradient>
<linearGradient id="paint19_linear_682_310" x1="10.2347" y1="19.8794" x2="28.0438" y2="36.3826" gradientUnits="userSpaceOnUse">
<stop stop-color="#E93040"/>
<stop offset="1" stop-color="#F6278F"/>
</linearGradient>
<linearGradient id="paint20_linear_682_310" x1="48.9757" y1="0.44487" x2="17.7602" y2="65.6042" gradientUnits="userSpaceOnUse">
<stop stop-color="#FF539B"/>
<stop offset="1" stop-color="#FF539B" stop-opacity="0"/>
</linearGradient>
<linearGradient id="paint21_linear_682_310" x1="8.76547" y1="24.7062" x2="33.5239" y2="36.5698" gradientUnits="userSpaceOnUse">
<stop stop-color="#E93040"/>
<stop offset="1" stop-color="#F6278F"/>
</linearGradient>
<linearGradient id="paint22_linear_682_310" x1="5.08747" y1="22.9328" x2="3.08461" y2="29.6223" gradientUnits="userSpaceOnUse">
<stop stop-color="#FF539B"/>
<stop offset="1" stop-color="#FF539B" stop-opacity="0"/>
</linearGradient>
</defs>
</svg>
