<svg width="12" height="10" viewBox="0 0 12 10" fill="none" xmlns="http://www.w3.org/2000/svg">
<g clip-path="url(#clip0_698_1188)">
<path d="M4.17174 4.67867C5.43424 4.67867 6.45774 3.63129 6.45774 2.33934C6.45774 1.04738 5.43424 0 4.17174 0C2.90924 0 1.88574 1.04738 1.88574 2.33934V2.33985C1.88699 3.63129 2.90974 4.67765 4.17174 4.67867Z" fill="#898989"/>
<path d="M7.162 6.61124C5.553 4.92223 2.9105 4.88795 1.26 6.53449C0.45475 7.3378 0.0005 8.43993 0 9.59067C0 9.81683 0.179 10 0.4 10H7.944C8.165 10 8.344 9.81683 8.344 9.59067C8.3455 9.15652 8.28 8.72493 8.15 8.31202C7.95625 7.6732 7.61775 7.09041 7.162 6.61124Z" fill="#898989"/>
<path d="M8.9998 4.88334C9.93869 4.88334 10.6998 4.10446 10.6998 3.14367C10.6998 2.18288 9.93869 1.40401 8.9998 1.40401C8.06092 1.40401 7.2998 2.18288 7.2998 3.14367C7.2998 4.10446 8.06092 4.88334 8.9998 4.88334Z" fill="#898989"/>
<path d="M9.00004 5.36226C8.46379 5.36431 7.93804 5.51371 7.47754 5.79487C7.56429 5.87418 7.65204 5.95247 7.73404 6.03843C8.27879 6.61124 8.68329 7.30787 8.91479 8.07127C8.99404 8.3225 9.05254 8.58038 9.08954 8.84159H11.6C11.821 8.84159 12 8.65841 12 8.43225C11.9983 6.73762 10.656 5.36405 9.00004 5.36226Z" fill="#898989"/>
</g>
<defs>
<clipPath id="clip0_698_1188">
<rect width="12" height="10" fill="white"/>
</clipPath>
</defs>
</svg>
